<?xml version="1.0" standalone="no"?>
<!DOCTYPE svg PUBLIC "-//W3C//DTD SVG 20010904//EN"
 "http://www.w3.org/TR/2001/REC-SVG-20010904/DTD/svg10.dtd">
<svg version="1.0" xmlns="http://www.w3.org/2000/svg"
 width="329.000000pt" height="396.000000pt" viewBox="0 0 329.000000 396.000000"
 preserveAspectRatio="xMidYMid meet">

<g transform="translate(0.000000,396.000000) scale(0.100000,-0.100000)"
fill="#000000" stroke="none">
<path d="M0 1980 l0 -1980 1645 0 1645 0 0 1980 0 1980 -1645 0 -1645 0 0
-1980z m1648 1120 c40 -36 42 -40 17 -30 -56 21 -96 75 -94 127 0 25 2 23 16
-14 9 -27 32 -58 61 -83z m-47 -6 c24 -26 88 -48 111 -39 8 3 33 2 55 -3 37
-9 42 -7 47 10 5 22 29 20 34 -3 5 -24 -38 -71 -59 -66 -11 3 -16 1 -13 -4 8
-14 -43 -112 -85 -162 -20 -23 -29 -36 -20 -30 9 7 18 10 22 7 3 -3 8 3 11 13
5 15 17 18 74 18 45 0 75 5 86 14 25 21 100 20 124 -2 11 -10 45 -60 75 -110
81 -136 78 -129 57 -152 -18 -20 -17 -23 32 -140 88 -214 93 -264 26 -305 -36
-22 -157 -65 -163 -58 -3 2 -2 33 1 69 6 59 9 67 36 82 24 14 29 22 24 42 -12
49 -97 216 -106 210 -6 -4 -10 38 -10 114 0 74 -4 121 -10 121 -5 0 -10 -2
-10 -4 0 -15 -41 -158 -54 -188 -9 -21 -14 -38 -11 -38 9 0 36 68 56 140 l17
65 1 -152 1 -153 -304 0 -305 0 -7 45 c-7 51 -7 51 -54 58 -34 6 -34 6 -8 -5
23 -10 26 -16 22 -37 -12 -54 -16 -60 -37 -63 -12 -2 -22 -7 -22 -13 3 -72 18
-264 21 -277 8 -27 -30 -23 -50 5 -12 17 -14 18 -9 3 5 -15 3 -17 -8 -11 -11
6 -12 5 -1 -6 18 -20 15 -33 -5 -18 -16 13 -17 12 -4 -4 8 -9 11 -21 7 -24 -4
-4 -12 -1 -17 7 -8 12 -9 10 -7 -8 2 -12 7 -22 12 -22 5 1 12 -4 16 -10 5 -8
9 -7 13 5 4 9 3 13 -3 10 -14 -9 -12 7 4 28 7 9 22 17 34 17 18 0 21 -9 28
-82 4 -46 8 -87 8 -93 1 -6 129 -11 358 -13 l356 -2 6 27 c2 16 8 58 11 96 l7
67 94 0 94 0 0 -34 c0 -19 3 -37 8 -39 4 -3 5 20 4 50 -4 56 11 91 27 65 6
-10 14 -10 35 -2 39 15 99 12 122 -5 10 -8 15 -15 9 -15 -42 -4 -153 0 -167 5
-13 5 -18 2 -18 -9 0 -9 6 -16 13 -14 6 1 33 -1 58 -5 25 -4 65 -4 88 2 l42 9
-3 -78 c-2 -43 0 -76 5 -73 4 2 7 36 7 74 l0 70 33 -3 c28 -3 35 -10 59 -58
67 -138 100 -220 95 -234 -6 -14 -105 -16 -967 -16 -856 0 -961 2 -967 15 -7
19 71 195 95 213 14 10 13 12 -10 12 -24 0 -38 16 -38 41 0 6 15 7 35 3 22 -4
35 -3 33 3 -2 6 8 20 22 33 16 15 12 13 -13 -5 -24 -17 -42 -24 -48 -18 -9 9
140 123 161 123 15 0 12 -10 -8 -28 -10 -10 -12 -13 -5 -8 7 4 66 8 130 8 65
-1 111 2 103 5 -22 9 -39 35 -40 59 0 21 68 305 75 312 2 2 14 -3 27 -12 12
-9 27 -16 32 -16 5 0 -17 17 -48 37 -31 21 -56 43 -56 51 0 26 91 191 129 234
32 36 43 42 75 41 20 -1 48 -9 63 -18 27 -18 82 -23 121 -11 17 6 24 2 31 -16
6 -13 10 -17 10 -9 1 11 6 10 24 -5 12 -10 1 4 -25 32 -27 27 -48 55 -48 62 0
7 -4 12 -8 12 -5 0 -17 18 -27 40 -11 24 -25 40 -35 40 -21 0 -50 41 -50 70 0
28 17 25 33 -6 l13 -25 37 41 c21 22 47 61 59 86 l22 44 12 -41 c7 -23 23 -52
35 -65z m192 29 c-7 -2 -21 -2 -30 0 -10 3 -4 5 12 5 17 0 24 -2 18 -5z m-178
-895 c19 -9 28 -9 37 0 21 21 47 14 54 -13 4 -14 4 -29 0 -32 -3 -3 8 -15 24
-25 26 -15 29 -21 20 -37 -5 -11 -18 -22 -29 -26 -13 -4 -17 -12 -14 -28 3
-14 -2 -29 -11 -36 -13 -11 -20 -11 -38 1 -20 14 -25 14 -45 1 -31 -21 -53
-10 -53 26 0 20 -8 34 -25 45 -14 9 -25 23 -25 31 0 9 11 21 25 27 18 8 25 19
25 38 0 42 12 48 55 28z m-835 -540 c0 -13 -7 -239 -15 -503 -8 -264 -15 -508
-15 -542 0 -35 -4 -63 -10 -63 -7 0 -10 195 -10 565 l0 565 25 0 c19 0 25 -5
25 -22z m75 -95 c-3 -65 -10 -250 -15 -412 -6 -173 -14 -299 -20 -305 -7 -7
-10 126 -10 412 l0 422 26 0 26 0 -7 -117z m655 103 c19 -6 21 -5 10 3 -12 9
-9 11 14 11 21 0 27 -4 22 -15 -3 -8 -1 -15 4 -15 6 0 10 7 10 15 0 11 13 15
54 15 l55 0 -6 -36 c-4 -25 -2 -39 8 -45 21 -13 -78 -11 -103 2 -15 8 -19 8
-14 0 8 -12 -24 -15 -73 -5 -28 6 -31 10 -31 46 0 28 4 39 13 35 6 -2 23 -7
37 -11z m980 -408 c0 -252 -4 -418 -9 -413 -5 6 -14 172 -20 370 -15 487 -15
465 9 465 20 0 20 -7 20 -422z m82 -135 c4 -489 1 -591 -16 -572 -2 2 -9 186
-15 409 -6 223 -14 476 -18 563 l-6 157 25 0 26 0 4 -557z m-591 301 l5 -89 4
90 c3 65 6 34 10 -115 11 -330 11 -512 0 -505 -6 4 -10 -25 -10 -79 0 -47 -4
-86 -9 -86 -4 0 -11 154 -15 343 -3 188 -9 386 -13 441 -5 82 -3 98 8 94 10
-3 16 -30 20 -94z m-497 -361 c4 -9 9 -42 13 -73 5 -51 3 -59 -16 -72 -13 -9
-19 -17 -14 -19 4 -2 19 -25 32 -50 23 -43 23 -51 13 -104 -7 -32 -12 -77 -12
-99 0 -97 -35 -150 -78 -120 -33 22 -27 32 21 37 l42 4 -47 1 c-59 2 -60 9
-17 112 l32 74 -22 14 c-20 14 -31 50 -11 37 5 -3 0 14 -13 39 -17 35 -28 45
-47 46 -14 0 -35 3 -47 6 -20 6 -22 2 -26 -47 -4 -51 -4 -50 -4 11 0 41 -6 77
-17 97 -20 41 -21 59 0 39 22 -22 79 -19 144 7 50 20 55 25 52 50 -4 30 12 37
22 10z m-170 -295 c-4 -68 -8 -125 -10 -127 -2 -2 -4 53 -4 122 0 83 4 127 11
127 7 0 8 -39 3 -122z"/>
<path d="M1518 3043 c6 -2 18 -2 25 0 6 3 1 5 -13 5 -14 0 -19 -2 -12 -5z"/>
<path d="M1645 2990 c-3 -6 1 -7 9 -4 18 7 21 14 7 14 -6 0 -13 -4 -16 -10z"/>
<path d="M1632 2930 c0 -34 2 -39 7 -20 5 17 9 21 15 12 4 -6 13 -12 19 -12 7
0 4 5 -6 11 -10 6 -22 20 -27 32 -7 17 -9 12 -8 -23z"/>
<path d="M1521 2804 c0 -11 3 -14 6 -6 3 7 2 16 -1 19 -3 4 -6 -2 -5 -13z"/>
<path d="M1628 2783 c7 -3 16 -2 19 1 4 3 -2 6 -13 5 -11 0 -14 -3 -6 -6z"/>
<path d="M1681 2744 c0 -11 3 -14 6 -6 3 7 2 16 -1 19 -3 4 -6 -2 -5 -13z"/>
<path d="M1721 2744 c0 -11 3 -14 6 -6 3 7 2 16 -1 19 -3 4 -6 -2 -5 -13z"/>
<path d="M1890 2703 c-7 -26 -14 -57 -17 -68 -3 -11 -2 -17 1 -13 10 8 38 119
33 124 -2 3 -10 -17 -17 -43z"/>
<path d="M1580 2715 c0 -25 32 -55 58 -54 l27 1 -28 7 c-16 3 -35 17 -42 31
-8 14 -14 20 -15 15z"/>
<path d="M1904 2498 c-4 -7 -14 -23 -22 -35 -8 -13 -10 -23 -6 -23 11 0 47 61
40 67 -2 2 -7 -2 -12 -9z"/>
<path d="M1207 2145 c-4 -8 -2 -17 3 -20 6 -4 10 3 10 14 0 25 -6 27 -13 6z"/>
<path d="M859 2113 c-13 -16 -12 -17 4 -4 9 7 17 15 17 17 0 8 -8 3 -21 -13z"/>
<path d="M793 2023 c16 -3 25 -9 21 -15 -5 -7 -2 -8 7 -2 8 5 41 12 74 15 51
5 46 6 -35 6 -52 0 -83 -2 -67 -4z"/>
<path d="M2227 2000 c3 -11 7 -20 9 -20 2 0 4 9 4 20 0 11 -4 20 -9 20 -5 0
-7 -9 -4 -20z"/>
<path d="M1155 1989 c-4 -6 -5 -12 -2 -15 2 -3 7 2 10 11 7 17 1 20 -8 4z"/>
<path d="M1150 1929 c0 -5 5 -7 10 -4 6 3 10 8 10 11 0 2 -4 4 -10 4 -5 0 -10
-5 -10 -11z"/>
<path d="M2308 1903 c12 -2 32 -2 45 0 12 2 2 4 -23 4 -25 0 -35 -2 -22 -4z"/>
<path d="M1570 2205 c0 -18 5 -25 19 -25 26 0 36 17 21 35 -19 23 -40 18 -40
-10z"/>
<path d="M1644 2206 c-16 -14 -23 -26 -16 -26 6 0 12 5 12 12 0 9 3 9 12 0 21
-21 50 -15 46 10 -4 31 -22 32 -54 4z"/>
<path d="M1582 2138 c0 -18 -4 -50 -7 -70 -9 -46 10 -51 44 -12 12 14 16 24 9
23 -27 -3 -38 2 -38 18 0 13 3 14 12 5 30 -30 86 5 71 44 -4 12 -3 15 5 10 7
-4 12 -3 12 2 0 13 -78 14 -86 1 -5 -8 -8 -8 -14 0 -3 6 -7 -3 -8 -21z m68 -8
c0 -11 -6 -20 -14 -20 -18 0 -29 16 -21 30 11 18 35 11 35 -10z"/>
<path d="M1529 2144 c-11 -14 -10 -18 5 -30 24 -17 36 -10 36 22 0 28 -21 32
-41 8z"/>
<path d="M1696 2145 c-7 -20 4 -47 17 -42 6 2 15 11 21 20 8 13 7 20 -4 27
-21 13 -27 12 -34 -5z"/>
<path d="M1675 2100 c-3 -5 -3 -10 1 -10 3 0 -4 -8 -17 -19 l-23 -18 22 -12
c12 -7 27 -9 32 -6 13 8 13 42 0 50 -6 4 -8 11 -5 16 4 5 4 9 1 9 -3 0 -8 -4
-11 -10z"/>
<path d="M1428 923 c7 -3 16 -2 19 1 4 3 -2 6 -13 5 -11 0 -14 -3 -6 -6z"/>
<path d="M1491 854 c0 -11 3 -14 6 -6 3 7 2 16 -1 19 -3 4 -6 -2 -5 -13z"/>
</g>
</svg>
