<?xml version="1.0" standalone="no"?>
<!DOCTYPE svg PUBLIC "-//W3C//DTD SVG 20010904//EN"
 "http://www.w3.org/TR/2001/REC-SVG-20010904/DTD/svg10.dtd">
<svg version="1.0" xmlns="http://www.w3.org/2000/svg"
 width="256.000000pt" height="256.000000pt" viewBox="0 0 256.000000 256.000000"
 preserveAspectRatio="xMidYMid meet">

<g transform="translate(0.000000,256.000000) scale(0.100000,-0.100000)"
fill="#000000" stroke="none">
<path d="M0 1280 l0 -1280 1280 0 1280 0 0 1280 0 1280 -1280 0 -1280 0 0
-1280z m894 1045 c97 -30 259 -128 348 -213 l36 -34 79 67 c187 160 378 230
495 181 126 -53 182 -246 144 -501 -9 -60 -17 -118 -19 -128 -1 -14 19 -26 98
-56 168 -64 257 -118 329 -203 67 -77 85 -160 52 -238 -43 -104 -205 -223
-396 -290 -36 -13 -69 -26 -73 -30 -4 -4 -1 -46 8 -95 18 -107 19 -271 2 -345
-31 -128 -94 -202 -187 -218 -124 -22 -307 58 -467 203 -35 31 -64 51 -68 45
-3 -6 -36 -34 -73 -63 -324 -258 -559 -253 -638 12 -19 63 -21 230 -4 326 6
33 14 76 16 95 l6 35 -69 23 c-95 33 -196 86 -274 143 -168 124 -198 255 -92
397 51 68 206 161 364 216 l76 27 -19 92 c-23 120 -26 296 -4 369 48 165 169
232 330 183z"/>
<path d="M722 2225 c-58 -42 -87 -175 -71 -328 10 -106 27 -187 39 -187 4 0
61 9 125 20 64 11 132 20 150 20 30 0 40 9 101 88 38 48 86 106 107 128 l38
42 -48 42 c-166 146 -369 227 -441 175z"/>
<path d="M1646 2215 c-71 -29 -173 -95 -243 -159 l-52 -47 75 -91 c42 -50 85
-106 97 -124 12 -19 31 -36 42 -38 11 -3 79 -14 151 -25 72 -11 137 -21 145
-23 25 -6 51 149 45 277 -6 131 -17 174 -58 220 -28 32 -34 35 -87 35 -36 0
-77 -9 -115 -25z"/>
<path d="M1206 1853 c-36 -42 -66 -80 -66 -84 0 -4 63 -7 140 -7 127 0 139 1
131 16 -17 30 -121 152 -130 152 -5 0 -39 -35 -75 -77z"/>
<path d="M1142 1663 l-83 -4 -56 -86 c-31 -48 -80 -134 -110 -190 l-55 -104
66 -120 c36 -66 86 -151 110 -188 43 -67 44 -68 97 -74 68 -8 278 -7 344 1 49
7 50 8 99 87 68 111 156 278 156 298 0 20 -78 164 -157 290 -55 87 -55 87 -96
87 -23 0 -85 2 -137 4 -52 2 -132 1 -178 -1z m226 -192 c128 -66 160 -216 70
-325 -84 -102 -231 -100 -321 4 -84 99 -54 256 62 317 56 29 136 31 189 4z"/>
<path d="M845 1634 c-11 -3 -46 -9 -77 -16 -32 -6 -58 -12 -58 -12 0 -8 60
-179 68 -192 8 -14 16 -5 48 52 21 38 53 93 71 122 l34 52 -33 -1 c-18 -1 -42
-3 -53 -5z"/>
<path d="M1655 1598 c14 -24 44 -78 68 -120 23 -43 44 -78 48 -78 6 0 82 201
77 205 -5 5 -174 35 -197 35 l-22 0 26 -42z"/>
<path d="M527 1555 c-96 -33 -167 -69 -235 -119 -71 -52 -102 -94 -109 -144
-6 -49 37 -115 114 -172 84 -64 305 -163 317 -142 2 4 11 31 21 61 10 30 35
96 56 147 l37 93 -32 78 c-18 43 -44 111 -57 151 -12 39 -28 72 -33 71 -6 0
-42 -11 -79 -24z"/>
<path d="M1910 1487 c-17 -50 -43 -118 -57 -149 l-25 -57 50 -118 c28 -65 54
-131 58 -146 3 -16 12 -31 19 -33 6 -3 42 6 79 20 216 82 357 206 339 299 -13
68 -153 176 -306 236 -130 51 -120 54 -157 -52z"/>
<path d="M747 1061 c-20 -55 -37 -105 -37 -109 0 -8 53 -19 178 -37 23 -4 42
-5 42 -3 0 3 -56 100 -137 237 -6 8 -21 -21 -46 -88z"/>
<path d="M1700 1043 c-36 -63 -66 -119 -68 -124 -3 -8 32 -5 128 12 76 14 90
19 90 31 0 15 -74 198 -80 198 -3 -1 -34 -53 -70 -117z"/>
<path d="M672 808 c-20 -79 -33 -219 -26 -281 8 -74 37 -158 63 -182 47 -42
141 -35 249 18 58 28 198 126 232 162 l21 23 -51 58 c-29 33 -75 89 -103 127
-28 38 -59 69 -71 71 -12 2 -75 11 -141 20 -66 9 -129 19 -141 22 -18 5 -23
-1 -32 -38z"/>
<path d="M1795 838 c-27 -5 -93 -15 -145 -22 l-95 -12 -70 -91 c-38 -51 -83
-108 -100 -129 l-29 -37 54 -50 c61 -56 162 -123 230 -153 31 -13 67 -19 118
-19 69 0 75 2 97 29 45 56 58 131 52 283 -6 155 -19 214 -45 212 -9 -1 -39 -6
-67 -11z"/>
<path d="M1140 791 c0 -8 55 -76 98 -123 l44 -47 42 48 c45 51 96 115 96 122
0 2 -63 4 -140 4 -77 0 -140 -2 -140 -4z"/>
</g>
</svg>
